<svg width="95" height="39" viewBox="0 0 95 39" fill="none" xmlns="http://www.w3.org/2000/svg">
<path d="M14.6816 9.32142L6.73997 18.3603C7.80234 19.6316 9.02145 21.051 10.3973 22.6185C11.7906 24.1859 12.6875 25.1525 13.0881 25.5182C13.5061 25.884 13.8282 26.1626 14.0547 26.3542C14.2985 26.5284 14.6642 26.7286 15.1519 26.955C15.6395 27.164 16.162 27.3034 16.7193 27.373L16.6932 28.209C15.6482 28.1916 14.7861 28.0348 14.1069 27.7388C13.4277 27.4253 12.8355 27.0247 12.3305 26.5371C11.8254 26.032 10.7195 24.8129 9.01274 22.8797C7.3234 20.9291 6.05204 19.4401 5.19866 18.4125L13.2187 9.32142H14.6816ZM4.7023 9.32142V28H3.44835V9.32142H4.7023ZM20.6409 21.5213L17.9502 28H16.6179L24.4811 9.1908H25.2126L33.102 28H31.6913L29.0006 21.5213H20.6409ZM24.7685 11.2807C24.7511 11.2981 24.7163 11.4026 24.664 11.5942C24.4202 12.3431 24.1851 12.9788 23.9587 13.5012L21.085 20.4502H28.5565L25.6828 13.5274C25.0733 12.2038 24.7685 11.4549 24.7685 11.2807ZM45.0429 10.9672C43.7715 10.4273 42.5089 10.1574 41.2549 10.1574C38.7122 10.1574 37.4408 11.0978 37.4408 12.9788C37.4408 13.7973 37.7282 14.5636 38.3029 15.2777C38.8777 15.9743 39.5743 16.6013 40.3928 17.1586C41.2114 17.6985 42.0299 18.2558 42.8485 18.8305C43.667 19.4052 44.3637 20.0932 44.9384 20.8943C45.5131 21.6954 45.8005 22.5662 45.8005 23.5067C45.8005 25.0915 45.2693 26.2932 44.2069 27.1118C43.1446 27.9129 41.6729 28.3135 39.792 28.3135C37.9285 28.3135 36.3349 27.8345 35.0113 26.8767L35.6383 25.9362C36.8922 26.7548 38.2681 27.164 39.7659 27.164C41.2636 27.164 42.4131 26.868 43.2142 26.2758C44.0154 25.6663 44.4159 24.7955 44.4159 23.6634C44.4159 22.8797 44.1286 22.1395 43.5538 21.4429C42.9791 20.7288 42.2825 20.0932 41.4639 19.5359C40.6454 18.9611 39.8268 18.3777 39.0083 17.7856C38.1897 17.1934 37.4931 16.4881 36.9184 15.6695C36.3436 14.851 36.0563 13.9715 36.0563 13.031C36.0563 11.7945 36.5091 10.8192 37.4147 10.1051C38.3378 9.37366 39.5743 9.00793 41.1243 9.00793C42.6917 9.00793 44.146 9.32141 45.487 9.94839L45.0429 10.9672ZM51.2571 28V9.32142H52.5111V28H51.2571ZM68.2252 28.3135C65.5083 28.3135 63.1746 27.3904 61.224 25.5444C59.2734 23.6808 58.2981 21.3907 58.2981 18.6738C58.2981 15.9395 59.1515 13.6493 60.8583 11.8032C62.565 9.93968 64.7507 9.00793 67.4154 9.00793C69.5053 9.00793 71.6213 9.35625 73.7635 10.0529L73.4239 11.0978C71.3339 10.4709 69.3311 10.1574 67.4154 10.1574C65.1339 10.1574 63.2704 10.9759 61.8248 12.613C60.3793 14.2501 59.6566 16.253 59.6566 18.6215C59.6566 20.9901 60.4925 23.0103 62.1645 24.6823C63.8538 26.3368 65.8741 27.164 68.2252 27.164C70.2803 27.164 72.0567 26.8505 73.5545 26.2236L73.9463 27.1118C73.2845 27.4949 72.4137 27.791 71.3339 28C70.2716 28.209 69.2353 28.3135 68.2252 28.3135ZM82.309 10.4186H75.9871V9.32142H89.885V10.4186H83.563V28H82.309V10.4186Z" fill="url(#paint0_linear_25_748)"/>
<defs>
<linearGradient id="paint0_linear_25_748" x1="47.5" y1="0" x2="47.5" y2="39" gradientUnits="userSpaceOnUse">
<stop stop-color="#0F0F0F"/>
<stop offset="1" stop-color="#3D408F"/>
</linearGradient>
</defs>
</svg>
