<svg width="20" height="20" viewBox="0 0 20 20" fill="none" xmlns="http://www.w3.org/2000/svg">
<path d="M16.6091 14.8151C16.6108 14.9723 16.5702 15.1778 16.528 15.3473C16.233 16.5389 14.923 17.8762 13.0791 17.7545C11.408 17.6445 10.0469 16.8423 10.0469 15.7173C10.0469 14.5923 11.4047 13.6801 13.0791 13.6801C14.7535 13.6801 16.5985 13.6901 16.6091 14.8151Z" fill="#EA596E"/>
<path d="M13.079 13.8689C12.1795 13.8689 10.1268 14.1178 9.65566 14.1178C8.82344 14.1178 8.14844 14.64 8.14844 15.2845C8.14844 15.5945 8.30733 15.8745 8.56177 16.0833C8.56177 16.0833 9.12066 16.6439 10.1273 16.375C10.5679 16.2572 11.2845 15.3828 12.5462 15.2439C13.1745 15.1745 14.3518 15.6606 16.4207 15.6722C16.5095 15.4811 16.5279 15.3483 16.5279 15.3483C16.5279 14.2222 14.7534 13.8689 13.079 13.8689Z" fill="#DD2E44"/>
<path d="M16.5276 15.3472C16.5276 15.3472 17.7409 15.1011 18.4953 14.1089C19.3748 12.9517 19.2592 11.7134 19.2592 11.7134C20.1503 10.0467 18.9815 8.48391 18.9815 8.48391C18.8653 6.72447 17.7776 5.99558 17.7776 5.99558C17.0715 4.31725 15.5092 3.86614 15.5092 3.86614C14.2826 2.43114 12.1065 2.47725 12.1065 2.47725C12.1065 2.47725 10.0676 1.73002 7.26867 2.57002C6.8059 2.70891 5.25479 3.0328 4.12034 3.72725C0.544786 5.91614 0.27423 9.32947 0.32423 9.88447C0.601452 12.9861 2.77756 13.5417 4.16645 13.8656C4.49034 14.745 5.68256 16.3656 7.82367 15.7639C10.4626 15.3011 11.5737 14.5139 12.222 14.5139C12.8703 14.5139 14.6759 15.2084 16.5276 15.3472Z" fill="#F4ABBA"/>
<path d="M9.8538 10.36C11.1471 9.66277 11.8482 9.72777 12.4671 9.78389C12.6638 9.80166 12.8499 9.81555 13.0382 9.81444C14.1405 9.78944 15.0332 9.325 15.4282 8.87555C15.4735 8.8197 15.4955 8.74849 15.4894 8.67684C15.4834 8.60518 15.4498 8.53865 15.3958 8.49118C15.3418 8.4437 15.2715 8.41898 15.1997 8.42217C15.1279 8.42537 15.06 8.45625 15.0105 8.50833C14.706 8.855 13.9555 9.23777 13.0255 9.25889C12.8588 9.26389 12.6916 9.24722 12.5182 9.23111C11.8544 9.16944 11.0299 9.09388 9.58991 9.87111C9.22047 10.0706 8.7138 10.1444 8.16491 10.2C6.94435 8.43833 7.6788 6.90388 7.8888 6.53833C7.90935 6.53944 7.92935 6.54611 7.95047 6.54611C8.17269 6.54611 8.39602 6.49166 8.59824 6.37722C8.65985 6.33971 8.70445 6.27972 8.72262 6.20992C8.74078 6.14012 8.73109 6.066 8.69559 6.00322C8.66008 5.94044 8.60155 5.89393 8.53238 5.87352C8.4632 5.85312 8.3888 5.86042 8.32491 5.89389C8.15014 5.9901 7.9455 6.01682 7.75187 5.96873C7.55825 5.92063 7.3899 5.80125 7.28047 5.63444C7.23915 5.57619 7.17699 5.53608 7.10689 5.52245C7.03678 5.50883 6.96412 5.52272 6.90399 5.56126C6.84387 5.59979 6.80089 5.66001 6.78399 5.7294C6.76709 5.79879 6.77757 5.87202 6.81324 5.93388C6.94491 6.14 7.13047 6.295 7.33991 6.39888C7.05047 6.98666 6.50102 8.53222 7.54658 10.2606C6.81102 10.3328 6.07435 10.4367 5.49769 10.8083C5.09238 11.0739 4.73883 11.4111 4.45435 11.8033C4.10491 11.7433 2.82547 11.4283 2.60213 10.0083C2.74102 9.90055 2.85324 9.75833 2.92269 9.58277C2.93611 9.54885 2.94272 9.51261 2.94214 9.47613C2.94156 9.43965 2.9338 9.40364 2.91931 9.37016C2.90481 9.33668 2.88386 9.30639 2.85766 9.281C2.83145 9.25562 2.8005 9.23564 2.76658 9.22222C2.73265 9.20879 2.69642 9.20218 2.65994 9.20276C2.62346 9.20334 2.58745 9.2111 2.55397 9.2256C2.52049 9.2401 2.49019 9.26105 2.4648 9.28725C2.43942 9.31346 2.41945 9.3444 2.40602 9.37833C2.38501 9.43673 2.35158 9.48987 2.30804 9.53408C2.26449 9.5783 2.21187 9.61254 2.1538 9.63444C2.09496 9.65399 2.03259 9.66064 1.97095 9.65393C1.90931 9.64722 1.84983 9.62731 1.79658 9.59555C1.7647 9.57782 1.72963 9.56655 1.69339 9.56237C1.65715 9.55819 1.62045 9.56119 1.58537 9.5712C1.51452 9.59141 1.4546 9.63894 1.4188 9.70333C1.383 9.76772 1.37424 9.84369 1.39445 9.91454C1.41466 9.98539 1.46219 10.0453 1.52658 10.0811C1.68436 10.1689 1.85324 10.2133 2.02102 10.2133C2.04158 10.2133 2.06102 10.2039 2.08158 10.2028C2.34602 11.5433 3.40547 12.1322 4.15491 12.3106C4.05678 12.5194 3.99461 12.7433 3.97102 12.9728C3.96455 13.0461 3.98748 13.1191 4.03478 13.1756C4.08208 13.232 4.14987 13.2674 4.22324 13.2739L4.24824 13.275C4.31768 13.275 4.38459 13.249 4.4358 13.2021C4.48701 13.1552 4.5188 13.0908 4.52491 13.0217C4.58491 12.3478 5.22769 11.6439 5.7988 11.2744C6.33435 10.9294 7.11824 10.8567 7.87713 10.7861C8.61324 10.7189 9.3088 10.6544 9.8538 10.36ZM17.0016 9.52444C16.9841 9.55647 16.973 9.59163 16.9691 9.62792C16.9652 9.66421 16.9685 9.70092 16.9787 9.73595C16.989 9.77098 17.0061 9.80364 17.0289 9.83207C17.0518 9.86051 17.0801 9.88415 17.1121 9.90166C17.1442 9.91917 17.1793 9.9302 17.2156 9.93412C17.2519 9.93804 17.2886 9.93478 17.3236 9.92451C17.3944 9.90378 17.454 9.85579 17.4894 9.79111C17.4999 9.77222 18.5127 7.875 16.6166 6.6C16.5554 6.55889 16.4805 6.54375 16.4082 6.55792C16.3358 6.57209 16.2721 6.6144 16.231 6.67555C16.1899 6.7367 16.1748 6.81167 16.1889 6.88398C16.2031 6.95628 16.2454 7.02 16.3066 7.06111C17.7755 8.04888 17.0338 9.46444 17.0016 9.52444ZM5.48658 5.03888C5.53067 5.03903 5.57415 5.02862 5.6134 5.00851C5.65264 4.98841 5.68649 4.9592 5.71213 4.92333C6.51769 3.80277 7.63324 4.18611 7.68047 4.20389C7.74889 4.22647 7.82341 4.22158 7.8883 4.19026C7.95319 4.15893 8.00336 4.10362 8.02823 4.03599C8.05311 3.96837 8.05073 3.89372 8.0216 3.82782C7.99248 3.76192 7.93888 3.70991 7.87213 3.68277C7.3388 3.485 6.10713 3.42277 5.26102 4.59944C5.23132 4.64094 5.21363 4.68982 5.20988 4.74071C5.20613 4.79161 5.21648 4.84255 5.23978 4.88795C5.26308 4.93335 5.29844 4.97146 5.34198 4.99808C5.38552 5.02471 5.43555 5.03882 5.48658 5.03888ZM12.7488 3.99C13.9849 3.88944 14.5471 4.78555 14.5727 4.82777C14.61 4.89135 14.6711 4.93749 14.7425 4.95603C14.7778 4.96522 14.8146 4.96735 14.8508 4.96231C14.8869 4.95727 14.9218 4.94516 14.9532 4.92666C14.9847 4.90817 15.0123 4.88365 15.0343 4.85452C15.0563 4.82539 15.0723 4.7922 15.0815 4.75687C15.0907 4.72153 15.0928 4.68473 15.0878 4.64857C15.0827 4.6124 15.0706 4.57759 15.0521 4.54611C15.0221 4.49555 14.3077 3.31389 12.7055 3.43611C12.6691 3.43895 12.6336 3.44893 12.6011 3.46548C12.5686 3.48203 12.5397 3.50481 12.516 3.53254C12.4681 3.58854 12.4444 3.66127 12.4502 3.73472C12.4559 3.80817 12.4906 3.87633 12.5466 3.9242C12.6026 3.97208 12.6753 3.99574 12.7488 3.99ZM17.8321 12.1072C17.6955 12.0994 17.5449 12.2078 17.5327 12.3611C17.5316 12.3711 17.4432 13.3161 16.4716 13.6356C16.408 13.6555 16.3538 13.6977 16.3188 13.7543C16.2838 13.811 16.2704 13.8784 16.281 13.9441C16.2916 14.0098 16.3255 14.0696 16.3765 14.1124C16.4275 14.1552 16.4922 14.1782 16.5588 14.1772C16.5882 14.1772 16.6175 14.1725 16.6455 14.1633C17.9632 13.7311 18.0821 12.4611 18.0866 12.4072C18.0924 12.3337 18.0689 12.2609 18.0213 12.2047C17.9736 12.1485 17.9056 12.1134 17.8321 12.1072Z" fill="#EA596E"/>
<path d="M4.08141 9.40773C4.07048 9.44338 4.06684 9.48085 4.07071 9.51793C4.07457 9.55501 4.08586 9.59093 4.1039 9.62356C4.12193 9.65618 4.14636 9.68484 4.1757 9.70783C4.20505 9.73082 4.23873 9.74766 4.27472 9.75736C4.31072 9.76706 4.3483 9.76941 4.38523 9.76428C4.42215 9.75915 4.45767 9.74664 4.48965 9.72749C4.52164 9.70835 4.54945 9.68296 4.57141 9.65284C4.59338 9.62272 4.60906 9.58849 4.61752 9.55218C4.67101 9.35969 4.7954 9.19459 4.96566 9.09008C5.13593 8.98557 5.33945 8.9494 5.5353 8.98884C5.57101 8.99632 5.60785 8.99669 5.6437 8.98994C5.67956 8.98318 5.71373 8.96942 5.74427 8.94946C5.77481 8.9295 5.80112 8.90371 5.8217 8.87358C5.84227 8.84345 5.85671 8.80956 5.86419 8.77384C5.87167 8.73813 5.87204 8.7013 5.86528 8.66544C5.85852 8.62959 5.84477 8.59541 5.8248 8.56487C5.80484 8.53433 5.77905 8.50802 5.74892 8.48745C5.71879 8.46687 5.6849 8.45243 5.64919 8.44496C5.418 8.39806 5.17843 8.41457 4.95586 8.49273C4.30808 7.38496 4.43419 6.29273 4.43586 6.28107C4.44534 6.20811 4.42562 6.13436 4.38098 6.07588C4.33634 6.0174 4.2704 5.97893 4.19752 5.96884C4.12476 5.95949 4.05123 5.97912 3.99282 6.0235C3.9344 6.06788 3.89579 6.13346 3.8853 6.20607C3.87808 6.25996 3.72974 7.49273 4.47586 8.7694C4.28539 8.93954 4.14837 9.16128 4.08141 9.40773ZM10.292 8.03551C10.4029 7.9346 10.5478 7.87938 10.6978 7.88092C10.8477 7.88247 10.9915 7.94067 11.1003 8.04384C11.1533 8.09484 11.2244 8.12282 11.2979 8.12168C11.3715 8.12053 11.4417 8.09036 11.4931 8.03773C11.5444 7.98491 11.5727 7.91385 11.5716 7.84019C11.5706 7.76653 11.5403 7.69631 11.4875 7.64496C11.362 7.52557 11.2104 7.43712 11.0447 7.38662C11.2092 6.82218 11.1442 6.57162 10.9914 6.10218C10.9612 6.01033 10.9321 5.9181 10.9042 5.82551L10.8875 5.76996C10.6853 5.09884 10.5514 4.65607 10.9359 4.03107C10.9745 3.9683 10.9865 3.89277 10.9695 3.82109C10.9524 3.74941 10.9075 3.68745 10.8447 3.64884C10.782 3.61024 10.7064 3.59815 10.6348 3.61524C10.5631 3.63233 10.5011 3.67719 10.4625 3.73996C9.94697 4.57773 10.1364 5.20496 10.3559 5.93107L10.3725 5.98662C10.4053 6.0944 10.4353 6.18884 10.4631 6.27384C10.6003 6.69662 10.642 6.83829 10.4742 7.3494C10.2644 7.38758 10.0697 7.48469 9.91308 7.6294C9.86115 7.6801 9.83112 7.74912 9.82943 7.82168C9.82774 7.89424 9.85451 7.96458 9.90402 8.01765C9.95353 8.07072 10.0219 8.1023 10.0944 8.10564C10.1669 8.10898 10.2378 8.08381 10.292 8.03551ZM13.8281 6.37718C13.9931 6.37768 14.1561 6.34143 14.3053 6.27107C14.372 6.23968 14.4234 6.1831 14.4484 6.11376C14.4734 6.04443 14.4697 5.96802 14.4384 5.90134C14.407 5.83467 14.3504 5.7832 14.2811 5.75824C14.2117 5.73329 14.1353 5.73691 14.0686 5.76829C13.9321 5.83068 13.777 5.83919 13.6344 5.79212C13.4918 5.74504 13.3723 5.64585 13.2997 5.5144C13.2832 5.48102 13.2602 5.45131 13.232 5.42701C13.2037 5.40272 13.1709 5.38436 13.1354 5.373C13.1 5.36165 13.0626 5.35755 13.0255 5.36093C12.9884 5.36432 12.9524 5.37512 12.9196 5.39271C12.8868 5.41029 12.8578 5.4343 12.8344 5.4633C12.8111 5.4923 12.7938 5.52569 12.7836 5.56151C12.7734 5.59732 12.7705 5.63482 12.7751 5.67178C12.7797 5.70873 12.7917 5.74439 12.8103 5.77662C12.9103 5.96329 13.0592 6.11051 13.2325 6.21273C12.9342 6.93773 13.1036 7.70773 13.242 8.11607C13.2525 8.1519 13.2702 8.18523 13.294 8.21406C13.3178 8.2429 13.3471 8.26664 13.3803 8.28388C13.4134 8.30111 13.4497 8.31148 13.4869 8.31436C13.5242 8.31724 13.5616 8.31258 13.597 8.30065C13.6325 8.28873 13.6651 8.26978 13.693 8.24494C13.7209 8.22011 13.7435 8.1899 13.7595 8.15612C13.7755 8.12234 13.7845 8.08569 13.7859 8.04836C13.7874 8.01102 13.7813 7.97378 13.7681 7.93884C13.6747 7.66218 13.4936 6.96329 13.767 6.36884C13.7881 6.36996 13.8075 6.37718 13.8281 6.37718ZM16.4931 11.6155C16.491 11.579 16.4816 11.5433 16.4656 11.5105C16.4496 11.4776 16.4272 11.4483 16.3998 11.4242C16.3723 11.4 16.3404 11.3816 16.3058 11.3699C16.2711 11.3582 16.2345 11.3535 16.1981 11.3561C16.0649 11.3653 15.9312 11.3481 15.8046 11.3055C15.6781 11.2628 15.5612 11.1956 15.4607 11.1077C15.3602 11.0198 15.278 10.9129 15.2189 10.7932C15.1599 10.6734 15.125 10.5432 15.1164 10.41C15.1102 10.3369 15.0758 10.2691 15.0206 10.221C14.9653 10.1728 14.8935 10.1479 14.8203 10.1516C14.7469 10.1569 14.6785 10.191 14.6301 10.2465C14.5817 10.3019 14.5572 10.3743 14.562 10.4477C14.5847 10.7755 14.7097 11.0711 14.8997 11.3116C14.4531 11.8372 13.8681 11.9866 13.542 12.025C13.2536 12.0594 13.0014 12.03 12.7097 11.9955C12.4425 11.965 12.1403 11.93 11.7664 11.9411L11.7636 11.9416C11.7525 11.7827 11.7147 11.5511 11.5942 11.3583C11.5527 11.3012 11.4912 11.262 11.4219 11.2486C11.3527 11.2351 11.2809 11.2485 11.2211 11.286C11.1613 11.3235 11.118 11.3822 11.0999 11.4504C11.0818 11.5186 11.0903 11.5911 11.1236 11.6533C11.1981 11.7727 11.212 11.9633 11.212 12.0561C10.932 12.1566 10.6897 12.3044 10.4709 12.4472C10.0797 12.7016 9.77141 12.9027 9.30752 12.7983C8.88752 12.7022 8.46697 12.6827 8.1103 12.7327C8.05474 12.5933 7.96697 12.4266 7.83141 12.2983C7.77785 12.2477 7.70638 12.2204 7.63272 12.2225C7.55906 12.2246 7.48925 12.2558 7.43863 12.3094C7.38802 12.363 7.36076 12.4344 7.36284 12.5081C7.36493 12.5817 7.39619 12.6516 7.44974 12.7022C7.49752 12.7472 7.5353 12.8127 7.56586 12.8783C6.95308 13.1305 6.64586 13.5522 6.63141 13.5727C6.60194 13.6142 6.58446 13.663 6.58087 13.7138C6.57729 13.7645 6.58775 13.8153 6.6111 13.8605C6.63445 13.9057 6.66979 13.9436 6.71326 13.9701C6.75673 13.9965 6.80664 14.0105 6.85752 14.0105C6.90143 14.0106 6.94474 14.0004 6.98394 13.9806C7.02313 13.9608 7.0571 13.932 7.08308 13.8966C7.08586 13.8922 7.39086 13.4838 7.99252 13.3188C8.30363 13.2333 8.74974 13.2405 9.18474 13.3394C9.30641 13.3672 9.41919 13.3766 9.52863 13.3783C9.5803 13.4994 9.6003 13.6433 9.60308 13.6966C9.60718 13.7674 9.63816 13.834 9.68968 13.8827C9.7412 13.9315 9.80938 13.9587 9.8803 13.9588L9.8953 13.9583C9.9686 13.9544 10.0374 13.9217 10.0866 13.8672C10.1359 13.8128 10.1616 13.7411 10.1581 13.6677C10.1488 13.5383 10.1246 13.4104 10.0859 13.2866C10.342 13.1938 10.5647 13.0488 10.7742 12.9127C11.092 12.7055 11.3925 12.5094 11.7853 12.4966C12.1142 12.485 12.3853 12.5166 12.647 12.5472C12.9103 12.5777 13.1692 12.5977 13.4547 12.5811C13.5053 12.7216 13.5014 12.9094 13.4936 12.9722C13.4889 13.0113 13.4926 13.051 13.5043 13.0886C13.516 13.1262 13.5355 13.1609 13.5616 13.1904C13.5877 13.22 13.6197 13.2437 13.6556 13.26C13.6914 13.2762 13.7303 13.2848 13.7697 13.285C13.8371 13.2849 13.9021 13.2603 13.9527 13.2158C14.0033 13.1714 14.036 13.1101 14.0447 13.0433C14.0651 12.8611 14.054 12.6767 14.012 12.4983C14.5188 12.3638 14.9731 12.0789 15.3147 11.6811C15.5902 11.8512 15.9117 11.9314 16.2347 11.9105C16.2711 11.9081 16.3066 11.8986 16.3392 11.8824C16.3719 11.8663 16.401 11.8439 16.425 11.8165C16.449 11.7891 16.4674 11.7573 16.479 11.7228C16.4907 11.6883 16.4955 11.6518 16.4931 11.6155Z" fill="#EA596E"/>
</svg>
