<svg width="20" height="28" viewBox="0 0 20 28" fill="none" xmlns="http://www.w3.org/2000/svg">
<path d="M3.3335 1.33337H12.3722L18.6668 8.25804V24.6667C18.6668 25.1971 18.4561 25.7058 18.081 26.0809C17.706 26.456 17.1973 26.6667 16.6668 26.6667H3.3335C2.80306 26.6667 2.29436 26.456 1.91928 26.0809C1.54421 25.7058 1.3335 25.1971 1.3335 24.6667V3.33337C1.3335 2.80294 1.54421 2.29423 1.91928 1.91916C2.29436 1.54409 2.80306 1.33337 3.3335 1.33337Z" stroke="#66666E" stroke-width="1.5" stroke-linejoin="round"/>
<path d="M4 20H16M4 22.6667H12" stroke="#66666E" stroke-width="1.5" stroke-linecap="round"/>
<path d="M4 16.6667L7.33333 8.66675L10.6667 16.6667M4.83333 14.6667H9.83333" stroke="#66666E" stroke-width="1.5" stroke-linecap="round" stroke-linejoin="round"/>
<path d="M14 12.6667V16.6667M12 14.6667H16" stroke="#66666E" stroke-width="1.5" stroke-linecap="round"/>
</svg>
