<svg width="18" height="17" viewBox="0 0 18 17" fill="none" xmlns="http://www.w3.org/2000/svg">
<path d="M3.62 7.39474C5.06 9.8528 7.38 11.8592 10.21 13.1186L12.41 11.2078C12.68 10.9733 13.08 10.8951 13.43 10.9993C14.55 11.3207 15.76 11.4944 17 11.4944C17.55 11.4944 18 11.8853 18 12.363V15.3943C18 15.872 17.55 16.2629 17 16.2629C7.61 16.2629 0 9.65303 0 1.49714C0 1.01943 0.45 0.628571 1 0.628571H4.5C5.05 0.628571 5.5 1.01943 5.5 1.49714C5.5 2.58286 5.7 3.62514 6.07 4.59794C6.18 4.90194 6.1 5.24069 5.82 5.48389L3.62 7.39474Z" fill="#525252" style="mix-blend-mode:color-burn"/>
</svg>
