<svg width="14" height="19" viewBox="0 0 14 19" fill="none" xmlns="http://www.w3.org/2000/svg">
<path d="M7 8.88571C6.33696 8.88571 5.70107 8.65693 5.23223 8.24971C4.76339 7.84249 4.5 7.29018 4.5 6.71428C4.5 6.13838 4.76339 5.58607 5.23223 5.17885C5.70107 4.77162 6.33696 4.54285 7 4.54285C7.66304 4.54285 8.29893 4.77162 8.76777 5.17885C9.23661 5.58607 9.5 6.13838 9.5 6.71428C9.5 6.99943 9.43534 7.2818 9.3097 7.54525C9.18406 7.8087 8.99991 8.04807 8.76777 8.24971C8.53562 8.45135 8.26002 8.61129 7.95671 8.72042C7.65339 8.82954 7.3283 8.88571 7 8.88571ZM7 0.634277C5.14348 0.634277 3.36301 1.27485 2.05025 2.41507C0.737498 3.55529 0 5.10176 0 6.71428C0 11.2743 7 18.0057 7 18.0057C7 18.0057 14 11.2743 14 6.71428C14 5.10176 13.2625 3.55529 11.9497 2.41507C10.637 1.27485 8.85652 0.634277 7 0.634277Z" fill="#F80000" fill-opacity="0.53" style="mix-blend-mode:color-burn"/>
</svg>
