<svg width="85" height="85" viewBox="0 0 85 85" fill="none" xmlns="http://www.w3.org/2000/svg">
<g clip-path="url(#clip0_25_802)">
<path d="M59.1097 24.5815L35.4859 13.7634C35.4859 13.7634 32.0466 10.7055 28.9039 14.4471C27.6069 15.9912 27.3252 17.7172 27.3252 17.7172L21.4104 54.4277C20.9382 57.8264 25.0755 58.9251 25.0755 58.9251L56.6491 66.8292L56.5251 65.2742C57.1857 64.0869 58.6597 62.0988 61.2296 61.8553C61.287 61.8497 61.3289 61.8114 61.3786 61.7858L62.3376 62.1003L59.1097 24.5815ZM36.9858 30.3701L38.0966 22.0276L55.7904 29.7417L56.1262 37.3049L36.9858 30.3701ZM57.5242 62.6009C57.2002 62.8919 56.9064 63.1936 56.6582 63.4993L36.0859 58.1264L56.1082 64.2605C56.0267 64.3867 55.9431 64.5124 55.8742 64.6308L29.3702 57.9008L55.4524 65.4348L55.4265 65.4889L25.9486 57.8857C25.9331 57.8837 24.5446 57.5879 23.5827 56.7799C22.6322 55.9816 22.45 54.996 23.023 53.7657C24.4947 50.604 29.6663 52.4552 29.744 52.4837L59.481 61.3673C59.0834 61.523 58.7295 61.7241 58.3943 61.9396L39.0744 56.8277L57.5242 62.6009Z" fill="#9DA2C8"/>
</g>
<defs>
<clipPath id="clip0_25_802">
<rect width="60" height="60" fill="white" transform="translate(38.59) rotate(40.0283)"/>
</clipPath>
</defs>
</svg>
