<svg width="688" height="791" viewBox="0 0 688 791" fill="none" xmlns="http://www.w3.org/2000/svg">
<path d="M414 51C414 53.2091 415.791 55 418 55C420.209 55 422 53.2091 422 51C422 48.7908 420.209 47 418 47C415.791 47 414 48.7908 414 51Z" fill="#53E7CD"/>
<path d="M0 101C-6.41123e-10 103.209 1.79086 105 4 105C6.20914 105 8 103.209 8 101C8 98.7908 6.20914 97 4 97C1.79086 97 6.41578e-10 98.7908 0 101Z" fill="#5B00E1"/>
<path d="M142 176C142 177.657 143.343 179 145 179C146.657 179 148 177.657 148 176C148 174.343 146.657 173 145 173C143.343 173 142 174.343 142 176Z" fill="#E7AC53"/>
<path d="M539 787C539 789.209 540.791 791 543 791C545.209 791 547 789.209 547 787C547 784.791 545.209 783 543 783C540.791 783 539 784.791 539 787Z" fill="#E7AC53"/>
<path d="M541 2C541 3.10457 541.895 4 543 4C544.105 4 545 3.10457 545 2C545 0.895431 544.105 3.20675e-10 543 0C541.895 -3.20675e-10 541 0.895431 541 2Z" fill="#5B00E1"/>
<path d="M684 743C684 744.105 684.895 745 686 745C687.105 745 688 744.105 688 743C688 741.895 687.105 741 686 741C684.895 741 684 741.895 684 743Z" fill="#53E7CD"/>
<path d="M277 744C277 745.657 278.343 747 280 747C281.657 747 283 745.657 283 744C283 742.343 281.657 741 280 741C278.343 741 277 742.343 277 744Z" fill="#5B00E1"/>
</svg>
