<svg width="9" height="13" viewBox="0 0 9 13" fill="none" xmlns="http://www.w3.org/2000/svg">
<path d="M4.24574 12.9395V0.212202H5.06108V12.9395H4.24574ZM6.40838 4.4132C6.36861 4.01216 6.19792 3.7006 5.89631 3.47854C5.5947 3.25647 5.18537 3.14544 4.66832 3.14544C4.317 3.14544 4.02036 3.19516 3.77841 3.29459C3.53646 3.39071 3.35085 3.52494 3.22159 3.69729C3.09564 3.86964 3.03267 4.06519 3.03267 4.28394C3.02604 4.46623 3.06416 4.62532 3.14702 4.76121C3.23319 4.8971 3.35085 5.01476 3.5 5.11419C3.64915 5.21031 3.8215 5.29483 4.01705 5.36774C4.21259 5.43734 4.4214 5.497 4.64347 5.54672L5.55824 5.76547C6.00237 5.8649 6.41004 5.99748 6.78125 6.1632C7.15246 6.32892 7.47396 6.53275 7.74574 6.7747C8.01752 7.01665 8.22798 7.30169 8.37713 7.62982C8.52959 7.95794 8.60748 8.33412 8.6108 8.75837C8.60748 9.38147 8.44839 9.92172 8.13352 10.3791C7.82197 10.8332 7.37121 11.1862 6.78125 11.4381C6.1946 11.6866 5.48698 11.8109 4.65838 11.8109C3.83641 11.8109 3.1205 11.685 2.51065 11.4331C1.90412 11.1812 1.43016 10.8083 1.08878 10.3145C0.75071 9.81732 0.57339 9.2025 0.556818 8.47001H2.63991C2.66312 8.8114 2.76089 9.09644 2.93324 9.32513C3.1089 9.55051 3.34257 9.7212 3.63423 9.8372C3.92921 9.94989 4.26231 10.0062 4.63352 10.0062C4.99811 10.0062 5.31463 9.95321 5.5831 9.84715C5.85488 9.74109 6.06534 9.59359 6.21449 9.40467C6.36364 9.21575 6.43821 8.99866 6.43821 8.7534C6.43821 8.5247 6.37027 8.33247 6.23438 8.17669C6.1018 8.02091 5.90625 7.88834 5.64773 7.77896C5.39252 7.66959 5.07931 7.57016 4.7081 7.48067L3.59943 7.20226C2.741 6.99345 2.06321 6.66698 1.56605 6.22286C1.06889 5.77873 0.82197 5.18048 0.825284 4.42811C0.82197 3.81163 0.986032 3.27305 1.31747 2.81234C1.65223 2.35164 2.11127 1.99203 2.6946 1.73351C3.27794 1.47499 3.94081 1.34572 4.68324 1.34572C5.43892 1.34572 6.09849 1.47499 6.66193 1.73351C7.22869 1.99203 7.66951 2.35164 7.98438 2.81234C8.29924 3.27305 8.46165 3.80666 8.47159 4.4132H6.40838Z" fill="#2D4751" fill-opacity="0.8"/>
</svg>
