<svg width="46" height="46" viewBox="0 0 46 46" fill="none" xmlns="http://www.w3.org/2000/svg">
<g clip-path="url(#clip0_25_565)">
<path d="M7.51663 27.3155C7.35907 27.158 7.26169 26.9405 7.26185 26.7003L7.26182 22.7972C7.26182 22.3167 7.65133 21.9271 8.13184 21.9272C8.61234 21.9272 9.00186 22.3167 9.00186 22.7972L9.00189 26.7003C9.00189 27.1808 8.61238 27.5703 8.13187 27.5703C7.89146 27.5703 7.67403 27.4729 7.51663 27.3155Z" fill="#3BA7F5"/>
<path d="M11.7592 27.3156C11.6018 27.1581 11.4976 26.9472 11.4844 26.7203L11.2676 23.0341C11.2409 22.5802 11.5871 22.234 12.0409 22.2607C12.4947 22.2874 12.8842 22.6769 12.9109 23.1307L13.1278 26.817C13.1545 27.2708 12.8083 27.6171 12.3544 27.5904C12.1275 27.5772 11.9166 27.473 11.7592 27.3156Z" fill="#3BA7F5"/>
<path d="M13.226 22.7668C13.226 22.3022 12.8493 21.9256 12.3849 21.9257L8.12146 21.9256C7.89825 21.9256 7.68431 22.0142 7.52656 22.1719C7.36881 22.3297 7.28006 22.5438 7.28022 22.7668L7.28015 25.6649L13.2262 25.6646L13.226 22.7668Z" fill="#259DF4"/>
<path d="M37.0737 23.7371C37.0675 22.9699 36.8886 22.2145 36.5532 21.5263C36.877 20.8444 37.0431 20.0921 37.0366 19.324C37.0133 16.5186 34.7116 14.2172 31.9067 14.1938C29.8227 14.1761 27.7246 15.2372 25.6709 17.3479C25.0245 18.0123 24.4894 18.674 24.1034 19.189L9.44142 19.0663C8.21095 19.056 7.21841 20.0486 7.22869 21.279L7.24044 22.6865C7.24227 22.9052 7.24732 23.5107 7.24732 23.5107L24.1373 23.6517C24.5338 24.176 25.0819 24.8492 25.7393 25.5243C27.8293 27.6668 29.9446 28.765 32.0287 28.7824C34.834 28.8057 37.0973 26.5424 37.0737 23.7371ZM31.5502 21.4836C31.5552 22.153 31.8572 22.784 32.3777 23.2136C32.5245 23.3349 32.6096 23.5124 32.6113 23.6995C32.614 24.0445 32.336 24.3225 31.9913 24.3198C30.7921 24.3097 29.1971 22.8647 28.0398 21.4554C29.1733 20.0651 30.7438 18.6465 31.9441 18.6567C32.1104 18.6579 32.2676 18.7243 32.3868 18.8435C32.5062 18.963 32.5726 19.1202 32.5738 19.2876C32.5757 19.4748 32.494 19.6499 32.3493 19.7683C31.836 20.1893 31.5448 20.8147 31.5502 21.4836Z" fill="#1B99F3"/>
<path d="M32.3567 23.337C32.5015 23.4565 32.5851 23.6319 32.586 23.8171C32.5874 24.1585 32.3108 24.4352 31.9696 24.4338C30.7822 24.4288 29.2089 23.0047 28.0688 21.6141L7.46299 21.5283L7.46876 22.9195C7.46966 23.136 7.47215 23.7356 7.47215 23.7356L24.1955 23.805C24.5859 24.3225 25.1258 24.9868 25.774 25.6525C27.8345 27.7653 29.9245 28.8439 31.988 28.8525C34.7658 28.864 37.0162 26.6136 37.0045 23.8359C37.0012 23.0763 36.8276 22.3291 36.4982 21.6489L31.5446 21.6283C31.5472 22.291 31.8434 22.9141 32.3567 23.337Z" fill="#3BA7F5"/>
</g>
<defs>
<clipPath id="clip0_25_565">
<rect width="32" height="32" fill="white" transform="translate(22.6274) rotate(45)"/>
</clipPath>
</defs>
</svg>
