<svg width="68" height="66" viewBox="0 0 68 66" fill="none" xmlns="http://www.w3.org/2000/svg">
<g clip-path="url(#clip0_25_800)">
<path d="M10.0026 16.4573C9.1219 17.6582 9.38147 19.3458 10.5824 20.2265L11.8871 21.1833C13.088 22.0641 14.7756 21.8045 15.6563 20.6036C16.5371 19.4026 16.2775 17.7151 15.0766 16.8344L13.7719 15.8775C12.5709 14.9968 10.8834 15.2563 10.0026 16.4573ZM29.4821 4.71534C27.9902 4.94481 26.9669 6.34024 27.1963 7.83211L27.5828 10.3449C27.8123 11.8368 29.2077 12.8602 30.6996 12.6307C32.1915 12.4013 33.2149 11.0058 32.9854 9.51395L32.5989 7.00112C32.3694 5.50924 30.974 4.48586 29.4821 4.71534ZM10.287 40.4643C11.7789 40.2348 12.8023 38.8394 12.5728 37.3475C12.3433 35.8556 10.9479 34.8322 9.45601 35.0617L6.81755 35.4675C5.32567 35.697 4.30229 37.0924 4.53176 38.5843C4.76123 40.0762 6.15666 41.0996 7.64853 40.8701L10.287 40.4643ZM44.4952 48.3882C44.3333 47.3359 44.7567 46.2914 45.5117 45.5407C47.0918 43.9696 48.3169 42.1265 49.1872 40.0113C50.2794 37.3567 50.6001 34.5637 50.1491 31.632C49.4663 27.1927 47.3128 23.6441 43.6887 20.9862C40.0645 18.3283 36.0327 17.3408 31.5934 18.0236C27.1541 18.7065 23.6055 20.86 20.9476 24.4841C18.2897 28.1083 17.3022 32.14 17.985 36.5793C18.4359 39.511 19.5602 42.0818 21.3577 44.2918C22.7917 46.0548 24.5228 47.4447 26.5513 48.4615C27.5172 48.9456 28.2533 49.823 28.4176 50.8909L29.3822 57.1622C29.802 59.8915 32.3549 61.7637 35.0842 61.3439L41.2825 60.3905C44.0118 59.9707 45.8841 57.4179 45.4643 54.6885L44.4952 48.3882ZM55.4164 30.7576C55.6459 32.2494 57.0413 33.2728 58.5332 33.0434L61.1716 32.6375C62.6635 32.408 63.6869 31.0126 63.4574 29.5207C63.228 28.0289 61.8325 27.0055 60.3406 27.235L57.7022 27.6408C56.2103 27.8703 55.1869 29.2657 55.4164 30.7576ZM46.8742 11.9309C45.9921 13.1336 46.2671 14.8258 47.4846 15.6874C48.6623 16.5207 50.2891 16.2672 51.1573 15.115L52.131 13.8229C53.0296 12.6304 52.7798 10.9333 51.5757 10.0502C50.3826 9.17521 48.706 9.43309 47.831 10.6262L46.8742 11.9309Z" fill="#9DA2C8"/>
</g>
<defs>
<clipPath id="clip0_25_800">
<rect width="60" height="56.9492" fill="white" transform="matrix(0.988376 -0.152026 -0.152026 -0.988376 8.65771 65.4087)"/>
</clipPath>
</defs>
</svg>
