<svg width="43" height="43" viewBox="0 0 43 43" fill="none" xmlns="http://www.w3.org/2000/svg">
<path d="M21.5 9.75C19.1761 9.75 16.9043 10.4391 14.972 11.7302C13.0398 13.0213 11.5337 14.8564 10.6444 17.0035C9.75509 19.1505 9.5224 21.513 9.97577 23.7923C10.4291 26.0716 11.5482 28.1652 13.1915 29.8085C14.8348 31.4518 16.9284 32.5709 19.2077 33.0242C21.487 33.4776 23.8495 33.2449 25.9965 32.3556C28.1436 31.4663 29.9787 29.9602 31.2698 28.0279C32.5609 26.0957 33.25 23.8239 33.25 21.5C33.2451 18.3852 32.0056 15.3994 29.8031 13.1969C27.6006 10.9944 24.6148 9.75486 21.5 9.75ZM21.5 31.7812C19.4666 31.7812 17.4788 31.1783 15.788 30.0485C14.0973 28.9188 12.7795 27.3131 12.0014 25.4345C11.2232 23.5558 11.0196 21.4886 11.4163 19.4942C11.813 17.4999 12.7922 15.6679 14.2301 14.2301C15.6679 12.7922 17.4999 11.813 19.4942 11.4163C21.4886 11.0196 23.5558 11.2232 25.4345 12.0014C27.3131 12.7795 28.9188 14.0973 30.0485 15.788C31.1783 17.4788 31.7812 19.4666 31.7812 21.5C31.7812 24.2268 30.698 26.8418 28.7699 28.7699C26.8418 30.698 24.2268 31.7812 21.5 31.7812ZM20.7656 4.60938V0.9375C20.7656 0.742732 20.843 0.55594 20.9807 0.418218C21.1184 0.280496 21.3052 0.203125 21.5 0.203125C21.6948 0.203125 21.8816 0.280496 22.0193 0.418218C22.157 0.55594 22.2344 0.742732 22.2344 0.9375V4.60938C22.2344 4.80414 22.157 4.99093 22.0193 5.12866C21.8816 5.26638 21.6948 5.34375 21.5 5.34375C21.3052 5.34375 21.1184 5.26638 20.9807 5.12866C20.843 4.99093 20.7656 4.80414 20.7656 4.60938ZM6.44531 7.47344C6.36114 7.41031 6.29152 7.32983 6.24115 7.23745C6.19079 7.14507 6.16087 7.04295 6.15341 6.938C6.14595 6.83305 6.16113 6.72772 6.19792 6.62914C6.23471 6.53057 6.29226 6.44105 6.36666 6.36666C6.44105 6.29226 6.53057 6.23471 6.62914 6.19792C6.72772 6.16113 6.83305 6.14595 6.938 6.15341C7.04295 6.16087 7.14507 6.19079 7.23745 6.24115C7.32983 6.29152 7.41031 6.36114 7.47344 6.44531L10.0805 9.03398C10.2121 9.17645 10.2852 9.36328 10.2852 9.55723C10.2852 9.75118 10.2121 9.93801 10.0805 10.0805C10.0103 10.1488 9.92678 10.2019 9.8352 10.2366C9.74362 10.2714 9.64589 10.287 9.54805 10.2824C9.45313 10.2855 9.35857 10.2692 9.27018 10.2345C9.18179 10.1998 9.10141 10.1473 9.03398 10.0805L6.44531 7.47344ZM5.34375 21.5C5.34375 21.6948 5.26638 21.8816 5.12866 22.0193C4.99093 22.157 4.80414 22.2344 4.60938 22.2344H0.9375C0.742732 22.2344 0.55594 22.157 0.418218 22.0193C0.280496 21.8816 0.203125 21.6948 0.203125 21.5C0.203125 21.3052 0.280496 21.1184 0.418218 20.9807C0.55594 20.843 0.742732 20.7656 0.9375 20.7656H4.60938C4.80414 20.7656 4.99093 20.843 5.12866 20.9807C5.26638 21.1184 5.34375 21.3052 5.34375 21.5ZM10.0805 32.9195C10.2121 33.062 10.2852 33.2488 10.2852 33.4428C10.2852 33.6367 10.2121 33.8236 10.0805 33.966L7.47344 36.5547C7.40758 36.6249 7.32792 36.6807 7.23945 36.7186C7.15098 36.7565 7.05562 36.7757 6.95937 36.775C6.86329 36.7746 6.76826 36.755 6.67994 36.7171C6.59163 36.6793 6.51183 36.624 6.44531 36.5547C6.37647 36.4879 6.32173 36.408 6.28435 36.3197C6.24697 36.2314 6.22771 36.1365 6.22771 36.0406C6.22771 35.9447 6.24697 35.8498 6.28435 35.7615C6.32173 35.6732 6.37647 35.5933 6.44531 35.5266L9.03398 32.9195C9.17645 32.7879 9.36328 32.7148 9.55723 32.7148C9.75118 32.7148 9.93801 32.7879 10.0805 32.9195ZM22.2344 38.3906V42.0625C22.2344 42.2573 22.157 42.4441 22.0193 42.5818C21.8816 42.7195 21.6948 42.7969 21.5 42.7969C21.3052 42.7969 21.1184 42.7195 20.9807 42.5818C20.843 42.4441 20.7656 42.2573 20.7656 42.0625V38.3906C20.7656 38.1959 20.843 38.0091 20.9807 37.8713C21.1184 37.7336 21.3052 37.6562 21.5 37.6562C21.6948 37.6562 21.8816 37.7336 22.0193 37.8713C22.157 38.0091 22.2344 38.1959 22.2344 38.3906ZM36.5547 35.5266C36.6235 35.5933 36.6783 35.6732 36.7156 35.7615C36.753 35.8498 36.7723 35.9447 36.7723 36.0406C36.7723 36.1365 36.753 36.2314 36.7156 36.3197C36.6783 36.408 36.6235 36.4879 36.5547 36.5547C36.4882 36.624 36.4084 36.6793 36.3201 36.7171C36.2317 36.755 36.1367 36.7746 36.0406 36.775C35.9444 36.7757 35.849 36.7565 35.7606 36.7186C35.6721 36.6807 35.5924 36.6249 35.5266 36.5547L32.9195 33.966C32.7808 33.8272 32.7028 33.639 32.7028 33.4428C32.7028 33.2465 32.7808 33.0583 32.9195 32.9195C33.0583 32.7808 33.2465 32.7028 33.4428 32.7028C33.639 32.7028 33.8272 32.7808 33.966 32.9195L36.5547 35.5266ZM42.7969 21.5C42.7969 21.6948 42.7195 21.8816 42.5818 22.0193C42.4441 22.157 42.2573 22.2344 42.0625 22.2344H38.3906C38.1959 22.2344 38.0091 22.157 37.8713 22.0193C37.7336 21.8816 37.6562 21.6948 37.6562 21.5C37.6562 21.3052 37.7336 21.1184 37.8713 20.9807C38.0091 20.843 38.1959 20.7656 38.3906 20.7656H42.0625C42.2573 20.7656 42.4441 20.843 42.5818 20.9807C42.7195 21.1184 42.7969 21.3052 42.7969 21.5ZM36.5547 6.44531C36.6235 6.51206 36.6783 6.59196 36.7156 6.68026C36.753 6.76857 36.7723 6.86348 36.7723 6.95937C36.7723 7.05527 36.753 7.15018 36.7156 7.23848C36.6783 7.32679 36.6235 7.40669 36.5547 7.47344L33.966 10.0805C33.8986 10.1473 33.8182 10.1998 33.7298 10.2345C33.6414 10.2692 33.5469 10.2855 33.452 10.2824C33.3541 10.287 33.2564 10.2714 33.1648 10.2366C33.0732 10.2019 32.9897 10.1488 32.9195 10.0805C32.7879 9.93801 32.7148 9.75118 32.7148 9.55723C32.7148 9.36328 32.7879 9.17645 32.9195 9.03398L35.5266 6.44531C35.5933 6.37647 35.6732 6.32173 35.7615 6.28435C35.8498 6.24697 35.9447 6.22771 36.0406 6.22771C36.1365 6.22771 36.2314 6.24697 36.3197 6.28435C36.408 6.32173 36.4879 6.37647 36.5547 6.44531Z" fill="#2D4751"/>
</svg>
